<svg xmlns="http://www.w3.org/2000/svg" viewBox="0 0 480.263 480.263"><path fill="#cb454e" d="M297.884 433.68H127.12v-44.547h200.462z"/><circle cx="453.798" cy="433.68" r="14.849" fill="#cb454e"/><path fill="#cb454e" d="M357.28 374.284h59.396v37.123H357.28z"/><path fill="#be1622" d="M379.553 403.982h59.396v37.123h-59.396z"/><path fill="#a48a7b" d="M114.366 77.892l-43.993 6.98-6.98-43.993 43.992-6.98z"/><path d="M167.67 129.58l-49.2 7.805c-29.525 4.684-57.256-15.454-61.94-44.978l-.825-5.203 49.2-7.805c29.525-4.684 57.256 15.454 61.94 44.978l.825 5.203z" fill="#cbbba0"/><path d="M116.34 137.723l-12.612 2.001c-21.383 3.392-41.468-11.192-44.86-32.576l-3.164-19.944 12.612-2.001c21.383-3.392 41.468 11.192 44.86 32.576l3.164 19.944z" fill="#a48a7b"/><path d="M336.532 388.45l-161.394 25.604C98.232 426.254 25.997 373.8 13.796 296.895l-7.909-49.857 166.628-26.434c74.015-11.742 143.536 38.741 155.278 112.756l8.739 55.09z" fill="#cbbba0"/><path d="M162.373 416.079c-69.856 11.082-135.47-36.564-146.552-106.42l-9.934-62.622 34.083-5.407c51.033-8.096 98.966 26.711 107.062 77.744l15.341 96.705z" fill="#a48a7b"/><path d="M225.369 214.622l-88.101 13.976c-50.489 8.01-97.912-26.427-105.922-76.916l88.101-13.976c50.489-8.01 97.912 26.426 105.922 76.916z" fill="#cbbba0"/><path d="M128.764 225.277l-23.092 3.663c-29.842 4.734-57.871-15.62-62.606-45.462l-5.387-33.96 23.092-3.663c29.842-4.734 57.871 15.62 62.606 45.462l5.387 33.96z" fill="#a48a7b"/><path fill="#1d1d1b" d="M456.207 406.479l-.202-14.998 14.847-.2.203 14.997zM432.07 377.118l-.2-14.997 14.847-.2.2 14.998zM167.221 454.855l-.371-27.677 27.275-9.502 4.935 14.167-17.067 5.945.227 16.866zM205.268 454.343l-.372-27.675 27.277-9.502 4.934 14.166-17.067 5.945.227 16.865zM241.46 453.858l-.373-27.677 27.277-9.502 4.934 14.166-17.067 5.946.227 16.866z"/><g fill="#1d1d1b"><path d="M480.136 411.744l-8.99 1.983c-2.881.637-12.308 1.508-17.641-2.675-3.044-2.387-4.59-6.321-4.726-12.026l-.1-7.427-22.271.299-.399-29.695-53.526.719c-16.416.22-29.592 13.755-29.371 30.172.119 8.814 4.081 16.688 10.261 22.061l-60.369.811.201 14.998 75.115-1.009c1.381 5.064 4.089 9.69 7.949 13.447 5.6 5.452 12.957 8.439 20.756 8.439.138 0 .275-.001.413-.003l52.043-.698 1.408-.019c16.416-.22 29.592-13.754 29.371-30.17l-.124-9.207zm-108.969-4.388c-7.257-.844-12.957-6.971-13.059-14.467a14.686 14.686 0 0 1 4.186-10.504 14.685 14.685 0 0 1 10.388-4.467l38.528-.517.198 14.697-14.773.198c-10.923.148-20.407 6.195-25.468 15.06zm26.067 29.484c-3.946.088-7.675-1.434-10.504-4.186a14.68 14.68 0 0 1-4.467-10.387c-.109-8.146 6.429-14.861 14.574-14.972l37.044-.497.397 29.545-37.044.497zm53.452-.718l-1.408.019-.138-10.244c4.641 2.258 9.571 3.12 13.842 3.328-2.583 4.084-7.114 6.826-12.296 6.897z"/><path d="M300.249 397.073l39.569-6.347-11.369-70.866c-8.616-53.715-49.466-94.392-99.629-105.449l-3.189-19.877c-3.296-20.547-14.396-38.58-31.255-50.778-7.355-5.322-15.423-9.253-23.888-11.723l-2.375-14.805c-2.194-13.678-9.583-25.683-20.806-33.803-7.121-5.152-15.246-8.341-23.727-9.429l-3.321-20.701c-1.401-8.737-6.121-16.404-13.29-21.592-7.169-5.187-15.932-7.272-24.665-5.869l-26.087 4.184 5.361 33.418c1.035 6.456 3.888 12.325 8.196 17.044l-19.987 3.206 3.569 22.252c2.282 14.223 10.181 26.17 21.065 33.951l-44.55 7.146 4.148 25.859c4.089 25.487 20.186 46.105 41.581 57.039L0 242.059l11.368 70.866c9.25 57.666 55.65 100.298 110.838 107.396l.274 20.359 37.194-.499-.201-14.998-22.196.298-.055-4.124c.429.004.856.015 1.286.015 6.756 0 13.601-.535 20.482-1.639l126.291-20.259.124 9.243 14.998-.201-.154-11.443zM84.681 40.643a18.013 18.013 0 0 1 13.497 3.212 18.008 18.008 0 0 1 7.272 11.813l2.985 18.607-10.53 1.69-.748.12a17.997 17.997 0 0 1-13.495-3.212 18.007 18.007 0 0 1-7.272-11.814l-2.985-18.607 11.276-1.809zm-16.513 62.918l-1.193-7.441 40.009-6.419 4.09-.656c9.721-1.558 19.466.762 27.441 6.532 7.977 5.771 13.229 14.304 14.788 24.025l1.193 7.441-31.545 5.061-12.56 2.015c-20.066 3.209-39.004-10.494-42.223-30.558zm-19.337 66.956l-1.772-11.048 65.714-10.542.002-.001 25.977-4.167c16.587-2.658 33.219 1.3 46.83 11.147 13.613 9.849 22.576 24.41 25.237 41l1.772 11.048-85.785 13.762-5.906.947c-34.237 5.497-66.574-17.9-72.069-52.146zm250.874 186.107l7.348-.099-.201-14.998-29.695.398.201 14.998 7.349-.099.369 27.489-128.464 20.608c-61.978 9.936-120.491-32.392-130.434-94.372l-8.992-56.056 166.018-26.632c61.981-9.936 120.491 32.394 130.434 94.371l8.992 56.056-22.585 3.623-.34-25.287z"/></g></svg>
